<?xml version="1.0" encoding="UTF-8"?>
<svg id="Layer_2" data-name="Layer 2" xmlns="http://www.w3.org/2000/svg" width="1600" height="500" viewBox="0 0 1600 500">
  <defs>
    <style>
      .cls-1 {
        fill: #fff;
      }
    </style>
  </defs>
  <path class="cls-1" d="m925,180c-63.41,0-115,51.59-115,115s51.59,115,115,115c24.28,0,46.84-7.57,65.42-20.48,2.11,11.65,12.31,20.48,24.58,20.48,13.81,0,25-11.19,25-25v-90c0-63.41-51.59-115-115-115Zm0,180c-35.84,0-65-29.16-65-65s29.16-65,65-65,65,29.16,65,65-29.16,65-65,65Z"/>
  <path class="cls-1" d="m1265,90c-13.81,0-25,11.19-25,25v85.19c-18.5-12.74-40.9-20.19-65-20.19-63.41,0-115,51.59-115,115s51.59,115,115,115,115-51.59,115-115V115c0-13.81-11.19-25-25-25Zm-90,270c-35.84,0-65-29.16-65-65s29.16-65,65-65,65,29.16,65,65-29.16,65-65,65Z"/>
  <path class="cls-1" d="m1425,410c-63.41,0-115-51.59-115-115s51.59-115,115-115,115,51.59,115,115-51.59,115-115,115Zm0-180c-35.84,0-65,29.16-65,65s29.16,65,65,65,65-29.16,65-65-29.16-65-65-65Z"/>
  <path class="cls-1" d="m425,410c-63.41,0-115-51.59-115-115s51.59-115,115-115,115,51.59,115,115-51.59,115-115,115Zm0-180c-35.84,0-65,29.16-65,65s29.16,65,65,65,65-29.16,65-65-29.16-65-65-65Z"/>
  <path class="cls-1" d="m175,180c-24.1,0-46.5,7.45-65,20.19v-85.19c0-13.81-11.19-25-25-25s-25,11.19-25,25v180c0,63.41,51.59,115,115,115s115-51.59,115-115-51.59-115-115-115Zm0,180c-35.84,0-65-29.16-65-65s29.16-65,65-65,65,29.16,65,65-29.16,65-65,65Z"/>
  <path class="cls-1" d="m675,180c-24.1,0-46.5,7.45-65,20.19v-85.19c0-13.81-11.19-25-25-25s-25,11.19-25,25v180c0,63.41,51.59,115,115,115s115-51.59,115-115-51.59-115-115-115Zm0,180c-35.84,0-65-29.16-65-65s29.16-65,65-65,65,29.16,65,65-29.16,65-65,65Z"/>
</svg>